<svg width="24" height="24" viewBox="0 0 24 24" fill="none" xmlns="http://www.w3.org/2000/svg">
<path d="M6 3V19.38L10.5945 15.7035C10.9934 15.3844 11.4891 15.2105 12 15.2105C12.5109 15.2105 13.0066 15.3844 13.4055 15.7035L18 19.3785V3H6ZM5.25 1.5H18.75C18.9489 1.5 19.1397 1.57902 19.2803 1.71967C19.421 1.86032 19.5 2.05109 19.5 2.25V20.94C19.4998 21.0811 19.4598 21.2193 19.3846 21.3387C19.3093 21.4581 19.2019 21.5539 19.0747 21.615C18.9475 21.6761 18.8056 21.7001 18.6654 21.6841C18.5252 21.6682 18.3923 21.6131 18.282 21.525L12.468 16.875C12.3351 16.7689 12.1701 16.7111 12 16.7111C11.8299 16.7111 11.6649 16.7689 11.532 16.875L5.718 21.525C5.60772 21.6131 5.47483 21.6682 5.3346 21.6841C5.19438 21.7001 5.0525 21.6761 4.92529 21.615C4.79807 21.5539 4.69068 21.4581 4.61545 21.3387C4.54022 21.2193 4.5002 21.0811 4.5 20.94V2.25C4.5 2.05109 4.57902 1.86032 4.71967 1.71967C4.86032 1.57902 5.05109 1.5 5.25 1.5Z" fill="black"/>
</svg>
