<svg width="0" height="0" class="hidden">
  <symbol fill="" xmlns="http://www.w3.org/2000/svg" viewBox="0 0 129 17" id="logo">
    <path d="M3.44 0.175999C1.592 0.175999 0.104 1.688 0.104 3.536V16.448C0.104 16.736 0.344 17 0.656 17H2.432C2.72 17 2.984 16.736 2.984 16.448V3.704C2.984 3.248 3.32 2.912 3.752 2.912H3.968C4.4 2.912 4.736 3.248 4.736 3.704V16.448C4.736 16.736 5 17 5.288 17H7.064C7.376 17 7.616 16.736 7.616 16.448V3.704C7.616 3.248 7.976 2.912 8.408 2.912H8.6C9.032 2.912 9.392 3.248 9.392 3.704V16.448C9.392 16.736 9.632 17 9.944 17H11.72C12.008 17 12.272 16.736 12.272 16.448V3.536C12.272 1.688 10.76 0.175999 8.912 0.175999H8.096C7.376 0.175999 6.728 0.415999 6.176 0.775999C5.648 0.415999 4.976 0.175999 4.28 0.175999H3.44ZM13.2226 13.664C13.2226 15.464 14.6866 16.952 16.4866 17H17.3506C17.6626 17 17.9026 16.76 17.9026 16.448V14.84C17.9026 14.528 17.6626 14.288 17.3506 14.288H16.8946C16.4626 14.288 16.1026 13.928 16.1026 13.496V12.344H20.2066C20.4946 12.344 20.7586 12.104 20.7586 11.792V8.168C20.7586 6.344 19.2466 4.832 17.3986 4.832H16.5826C14.7346 4.832 13.2226 6.344 13.2226 8.168V13.664ZM16.1026 9.632V8.336C16.1026 7.904 16.4626 7.544 16.8946 7.544H17.0866C17.5186 7.544 17.8786 7.904 17.8786 8.336V9.632H16.1026ZM28.2852 13.496V0.751999C28.2852 0.439999 28.0452 0.199999 27.7332 0.199999H25.9572C25.6692 0.199999 25.4292 0.439999 25.4292 0.751999V13.664C25.4292 15.512 26.9172 17 28.7652 17H29.5572C29.8452 17 30.1092 16.76 30.1092 16.448V14.84C30.1092 14.528 29.8452 14.288 29.5572 14.288H29.0772C28.6452 14.288 28.2852 13.928 28.2852 13.496ZM39.0759 13.496V0.751999C39.0759 0.439999 38.8359 0.199999 38.5239 0.199999H36.7479C36.4599 0.199999 36.2199 0.439999 36.2199 0.751999V13.664C36.2199 15.512 37.7079 17 39.5559 17H40.3479C40.6359 17 40.8999 16.76 40.8999 16.448V14.84C40.8999 14.528 40.6359 14.288 40.3479 14.288H39.8679C39.4359 14.288 39.0759 13.928 39.0759 13.496ZM59.2411 12.68C59.2411 12.488 59.3851 12.368 59.5531 12.368H60.5611C62.4091 12.368 63.8971 10.856 63.8971 9.008V3.536C63.8971 1.688 62.4091 0.199999 60.5611 0.199999H59.7211C57.8731 0.199999 56.3851 1.688 56.3851 3.536V16.448C56.3851 16.76 56.6251 17 56.9131 17H58.6891C59.0011 17 59.2411 16.76 59.2411 16.448V12.68ZM61.0171 8.864C61.0171 9.296 60.6571 9.632 60.2251 9.632H59.5531C59.3851 9.632 59.2411 9.488 59.2411 9.32V3.704C59.2411 3.272 59.6011 2.912 60.0331 2.912H60.2251C60.6571 2.912 61.0171 3.272 61.0171 3.704V8.864ZM70.7758 2C70.0798 2 69.5038 2.576 69.5038 3.272V3.608C69.5038 4.304 70.0798 4.88 70.7758 4.88H71.1118C71.8078 4.88 72.3838 4.304 72.3838 3.608V3.272C72.3838 2.576 71.8078 2 71.1118 2H70.7758ZM69.5038 8.264V16.448C69.5038 16.76 69.7678 17 70.0558 17H71.8318C72.1438 17 72.3838 16.76 72.3838 16.448V8.264C72.3838 7.952 72.1438 7.712 71.8318 7.712H70.0558C69.7678 7.712 69.5038 7.952 69.5038 8.264ZM80.5344 13.664C80.5344 15.512 82.0464 17 83.8944 17H84.6624C84.9744 17 85.2144 16.76 85.2144 16.448V14.84C85.2144 14.528 84.9744 14.288 84.6624 14.288H84.2064C83.7744 14.288 83.4144 13.928 83.4144 13.496V7.64H84.6384C84.9504 7.64 85.1904 7.4 85.1904 7.088V5.48C85.1904 5.168 84.9504 4.928 84.6384 4.928H83.4144V3.656C83.4144 3.368 83.1744 3.104 82.8624 3.104H81.0864C80.7984 3.104 80.5344 3.368 80.5344 3.656V4.928H78.7824C78.4704 4.928 78.2304 5.168 78.2304 5.48V7.088C78.2304 7.4 78.4704 7.64 78.7824 7.64H80.5344V13.664ZM88.757 13.664C88.757 15.464 90.221 16.952 92.021 17H92.885C93.197 17 93.437 16.76 93.437 16.448V14.84C93.437 14.528 93.197 14.288 92.885 14.288H92.429C91.997 14.288 91.637 13.928 91.637 13.496V8.336C91.637 7.904 91.997 7.544 92.429 7.544H92.621C93.053 7.544 93.413 7.904 93.413 8.336V10.352C93.413 10.664 93.653 10.904 93.965 10.904H95.741C96.029 10.904 96.293 10.664 96.293 10.352V8.168C96.293 6.344 94.781 4.832 92.933 4.832H92.117C90.269 4.832 88.757 6.344 88.757 8.168V13.664ZM99.5476 0.751999V16.448C99.5476 16.76 99.7876 17 100.076 17H101.852C102.164 17 102.404 16.76 102.404 16.448V8.36C102.404 7.928 102.764 7.568 103.196 7.568H103.388C103.82 7.568 104.18 7.928 104.18 8.36V16.448C104.18 16.76 104.42 17 104.732 17H106.508C106.82 17 107.06 16.76 107.06 16.448V8.192C107.06 6.344 105.548 4.856 103.724 4.856H102.404V0.751999C102.404 0.439999 102.164 0.199999 101.852 0.199999H100.076C99.7876 0.199999 99.5476 0.439999 99.5476 0.751999ZM110.338 13.664C110.338 15.464 111.802 16.952 113.602 17H114.466C114.778 17 115.018 16.76 115.018 16.448V14.84C115.018 14.528 114.778 14.288 114.466 14.288H114.01C113.578 14.288 113.218 13.928 113.218 13.496V12.344H117.322C117.61 12.344 117.874 12.104 117.874 11.792V8.168C117.874 6.344 116.362 4.832 114.514 4.832H113.698C111.85 4.832 110.338 6.344 110.338 8.168V13.664ZM113.218 9.632V8.336C113.218 7.904 113.578 7.544 114.01 7.544H114.202C114.634 7.544 114.994 7.904 114.994 8.336V9.632H113.218ZM126.337 12.368H128.113C128.401 12.368 128.665 12.104 128.665 11.816V8.192C128.665 6.344 127.153 4.856 125.305 4.856H121.465C121.273 4.856 121.129 4.976 121.129 5.168V16.448C121.129 16.76 121.393 17 121.681 17H123.457C123.769 17 124.009 16.76 124.009 16.448V8.312C124.009 7.88 124.369 7.52 124.801 7.52H124.993C125.425 7.52 125.785 7.88 125.785 8.312V11.816C125.785 12.104 126.025 12.368 126.337 12.368Z" fill=""></path>
    <path d="M6.176 0.775999L6.06333 0.941244L6.17353 1.01638L6.28525 0.943521L6.176 0.775999ZM3.44 -0.0240006C1.47968 -0.0240006 -0.0959999 1.57941 -0.0959999 3.536H0.304C0.304 1.79659 1.70432 0.375999 3.44 0.375999V-0.0240006ZM-0.0959999 3.536V16.448H0.304V3.536H-0.0959999ZM-0.0959999 16.448C-0.0959999 16.8408 0.227957 17.2 0.656 17.2V16.8C0.460043 16.8 0.304 16.6312 0.304 16.448H-0.0959999ZM0.656 17.2H2.432V16.8H0.656V17.2ZM2.432 17.2C2.83046 17.2 3.184 16.8465 3.184 16.448H2.784C2.784 16.6255 2.60954 16.8 2.432 16.8V17.2ZM3.184 16.448V3.704H2.784V16.448H3.184ZM3.184 3.704C3.184 3.35438 3.43449 3.112 3.752 3.112V2.712C3.20551 2.712 2.784 3.14162 2.784 3.704H3.184ZM3.752 3.112H3.968V2.712H3.752V3.112ZM3.968 3.112C4.28551 3.112 4.536 3.35438 4.536 3.704H4.936C4.936 3.14162 4.51449 2.712 3.968 2.712V3.112ZM4.536 3.704V16.448H4.936V3.704H4.536ZM4.536 16.448C4.536 16.8465 4.88954 17.2 5.288 17.2V16.8C5.11046 16.8 4.936 16.6255 4.936 16.448H4.536ZM5.288 17.2H7.064V16.8H5.288V17.2ZM7.064 17.2C7.49204 17.2 7.816 16.8408 7.816 16.448H7.416C7.416 16.6312 7.25996 16.8 7.064 16.8V17.2ZM7.816 16.448V3.704H7.416V16.448H7.816ZM7.816 3.704C7.816 3.3624 8.08247 3.112 8.408 3.112V2.712C7.86953 2.712 7.416 3.13359 7.416 3.704H7.816ZM8.408 3.112H8.6V2.712H8.408V3.112ZM8.6 3.112C8.92553 3.112 9.192 3.36241 9.192 3.704H9.592C9.592 3.13359 9.13847 2.712 8.6 2.712V3.112ZM9.192 3.704V16.448H9.592V3.704H9.192ZM9.192 16.448C9.192 16.8408 9.51596 17.2 9.944 17.2V16.8C9.74804 16.8 9.592 16.6312 9.592 16.448H9.192ZM9.944 17.2H11.72V16.8H9.944V17.2ZM11.72 17.2C12.1185 17.2 12.472 16.8465 12.472 16.448H12.072C12.072 16.6255 11.8975 16.8 11.72 16.8V17.2ZM12.472 16.448V3.536H12.072V16.448H12.472ZM12.472 3.536C12.472 1.57754 10.8705 -0.0240006 8.912 -0.0240006V0.375999C10.6495 0.375999 12.072 1.79846 12.072 3.536H12.472ZM8.912 -0.0240006H8.096V0.375999H8.912V-0.0240006ZM8.096 -0.0240006C7.32999 -0.0240006 6.64462 0.231602 6.06675 0.608477L6.28525 0.943521C6.81138 0.600396 7.42201 0.375999 8.096 0.375999V-0.0240006ZM6.28867 0.610753C5.73147 0.230844 5.02079 -0.0240006 4.28 -0.0240006V0.375999C4.93121 0.375999 5.56453 0.601154 6.06333 0.941244L6.28867 0.610753ZM4.28 -0.0240006H3.44V0.375999H4.28V-0.0240006ZM16.4866 17L16.4813 17.2H16.4866V17ZM16.1026 12.344V12.144H15.9026V12.344H16.1026ZM16.1026 9.632H15.9026V9.832H16.1026V9.632ZM17.8786 9.632V9.832H18.0786V9.632H17.8786ZM13.0226 13.664C13.0226 15.5736 14.5742 17.1491 16.4813 17.1999L16.492 16.8001C14.7991 16.7549 13.4226 15.3544 13.4226 13.664H13.0226ZM16.4866 17.2H17.3506V16.8H16.4866V17.2ZM17.3506 17.2C17.7731 17.2 18.1026 16.8705 18.1026 16.448H17.7026C17.7026 16.6495 17.5522 16.8 17.3506 16.8V17.2ZM18.1026 16.448V14.84H17.7026V16.448H18.1026ZM18.1026 14.84C18.1026 14.4175 17.7731 14.088 17.3506 14.088V14.488C17.5522 14.488 17.7026 14.6385 17.7026 14.84H18.1026ZM17.3506 14.088H16.8946V14.488H17.3506V14.088ZM16.8946 14.088C16.5731 14.088 16.3026 13.8175 16.3026 13.496H15.9026C15.9026 14.0385 16.3522 14.488 16.8946 14.488V14.088ZM16.3026 13.496V12.344H15.9026V13.496H16.3026ZM16.1026 12.544H20.2066V12.144H16.1026V12.544ZM20.2066 12.544C20.5994 12.544 20.9586 12.22 20.9586 11.792H20.5586C20.5586 11.988 20.3898 12.144 20.2066 12.144V12.544ZM20.9586 11.792V8.168H20.5586V11.792H20.9586ZM20.9586 8.168C20.9586 6.23261 19.3561 4.632 17.3986 4.632V5.032C19.1371 5.032 20.5586 6.45539 20.5586 8.168H20.9586ZM17.3986 4.632H16.5826V5.032H17.3986V4.632ZM16.5826 4.632C14.6251 4.632 13.0226 6.23261 13.0226 8.168H13.4226C13.4226 6.45539 14.8441 5.032 16.5826 5.032V4.632ZM13.0226 8.168V13.664H13.4226V8.168H13.0226ZM16.3026 9.632V8.336H15.9026V9.632H16.3026ZM16.3026 8.336C16.3026 8.01446 16.5731 7.744 16.8946 7.744V7.344C16.3522 7.344 15.9026 7.79354 15.9026 8.336H16.3026ZM16.8946 7.744H17.0866V7.344H16.8946V7.744ZM17.0866 7.744C17.4082 7.744 17.6786 8.01446 17.6786 8.336H18.0786C18.0786 7.79354 17.6291 7.344 17.0866 7.344V7.744ZM17.6786 8.336V9.632H18.0786V8.336H17.6786ZM17.8786 9.432H16.1026V9.832H17.8786V9.432ZM28.4852 13.496V0.751999H28.0852V13.496H28.4852ZM28.4852 0.751999C28.4852 0.329542 28.1557 -9.53674e-07 27.7332 -9.53674e-07V0.399999C27.9348 0.399999 28.0852 0.550456 28.0852 0.751999H28.4852ZM27.7332 -9.53674e-07H25.9572V0.399999H27.7332V-9.53674e-07ZM25.9572 -9.53674e-07C25.553 -9.53674e-07 25.2292 0.335387 25.2292 0.751999H25.6292C25.6292 0.54461 25.7855 0.399999 25.9572 0.399999V-9.53674e-07ZM25.2292 0.751999V13.664H25.6292V0.751999H25.2292ZM25.2292 13.664C25.2292 15.6225 26.8068 17.2 28.7652 17.2V16.8C27.0277 16.8 25.6292 15.4015 25.6292 13.664H25.2292ZM28.7652 17.2H29.5572V16.8H28.7652V17.2ZM29.5572 17.2C29.95 17.2 30.3092 16.876 30.3092 16.448H29.9093C29.9093 16.644 29.7405 16.8 29.5572 16.8V17.2ZM30.3092 16.448V14.84H29.9093V16.448H30.3092ZM30.3092 14.84C30.3092 14.412 29.95 14.088 29.5572 14.088V14.488C29.7405 14.488 29.9093 14.644 29.9093 14.84H30.3092ZM29.5572 14.088H29.0772V14.488H29.5572V14.088ZM29.0772 14.088C28.7557 14.088 28.4852 13.8175 28.4852 13.496H28.0852C28.0852 14.0385 28.5348 14.488 29.0772 14.488V14.088ZM39.2759 13.496V0.751999H38.8759V13.496H39.2759ZM39.2759 0.751999C39.2759 0.329542 38.9463 -9.53674e-07 38.5239 -9.53674e-07V0.399999C38.7254 0.399999 38.8759 0.550456 38.8759 0.751999H39.2759ZM38.5239 -9.53674e-07H36.7479V0.399999H38.5239V-9.53674e-07ZM36.7479 -9.53674e-07C36.3437 -9.53674e-07 36.0199 0.335387 36.0199 0.751999H36.4199C36.4199 0.54461 36.5761 0.399999 36.7479 0.399999V-9.53674e-07ZM36.0199 0.751999V13.664H36.4199V0.751999H36.0199ZM36.0199 13.664C36.0199 15.6225 37.5974 17.2 39.5559 17.2V16.8C37.8183 16.8 36.4199 15.4015 36.4199 13.664H36.0199ZM39.5559 17.2H40.3479V16.8H39.5559V17.2ZM40.3479 17.2C40.7407 17.2 41.0999 16.876 41.0999 16.448H40.6999C40.6999 16.644 40.5311 16.8 40.3479 16.8V17.2ZM41.0999 16.448V14.84H40.6999V16.448H41.0999ZM41.0999 14.84C41.0999 14.412 40.7407 14.088 40.3479 14.088V14.488C40.5311 14.488 40.6999 14.644 40.6999 14.84H41.0999ZM40.3479 14.088H39.8679V14.488H40.3479V14.088ZM39.8679 14.088C39.5463 14.088 39.2759 13.8175 39.2759 13.496H38.8759C38.8759 14.0385 39.3254 14.488 39.8679 14.488V14.088ZM59.4411 12.68C59.4411 12.6368 59.4561 12.612 59.4717 12.5972C59.4889 12.5809 59.5166 12.568 59.5531 12.568V12.168C59.285 12.168 59.0411 12.3675 59.0411 12.68H59.4411ZM59.5531 12.568H60.5611V12.168H59.5531V12.568ZM60.5611 12.568C62.5214 12.568 64.0971 10.9646 64.0971 9.008H63.6971C63.6971 10.7474 62.2968 12.168 60.5611 12.168V12.568ZM64.0971 9.008V3.536H63.6971V9.008H64.0971ZM64.0971 3.536C64.0971 1.57754 62.5196 -9.53674e-07 60.5611 -9.53674e-07V0.399999C62.2987 0.399999 63.6971 1.79846 63.6971 3.536H64.0971ZM60.5611 -9.53674e-07H59.7211V0.399999H60.5611V-9.53674e-07ZM59.7211 -9.53674e-07C57.7627 -9.53674e-07 56.1851 1.57754 56.1851 3.536H56.5851C56.5851 1.79846 57.9836 0.399999 59.7211 0.399999V-9.53674e-07ZM56.1851 3.536V16.448H56.5851V3.536H56.1851ZM56.1851 16.448C56.1851 16.8646 56.5089 17.2 56.9131 17.2V16.8C56.7413 16.8 56.5851 16.6554 56.5851 16.448H56.1851ZM56.9131 17.2H58.6891V16.8H56.9131V17.2ZM58.6891 17.2C59.1116 17.2 59.4411 16.8705 59.4411 16.448H59.0411C59.0411 16.6495 58.8907 16.8 58.6891 16.8V17.2ZM59.4411 16.448V12.68H59.0411V16.448H59.4411ZM60.8171 8.864C60.8171 9.17761 60.5548 9.432 60.2251 9.432V9.832C60.7595 9.832 61.2171 9.41439 61.2171 8.864H60.8171ZM60.2251 9.432H59.5531V9.832H60.2251V9.432ZM59.5531 9.432C59.4956 9.432 59.4411 9.37754 59.4411 9.32H59.0411C59.0411 9.59846 59.2747 9.832 59.5531 9.832V9.432ZM59.4411 9.32V3.704H59.0411V9.32H59.4411ZM59.4411 3.704C59.4411 3.38246 59.7116 3.112 60.0331 3.112V2.712C59.4907 2.712 59.0411 3.16154 59.0411 3.704H59.4411ZM60.0331 3.112H60.2251V2.712H60.0331V3.112ZM60.2251 3.112C60.5467 3.112 60.8171 3.38246 60.8171 3.704H61.2171C61.2171 3.16154 60.7676 2.712 60.2251 2.712V3.112ZM60.8171 3.704V8.864H61.2171V3.704H60.8171ZM70.7757 1.8C69.9693 1.8 69.3037 2.46554 69.3037 3.272H69.7038C69.7038 2.68646 70.1902 2.2 70.7757 2.2V1.8ZM69.3037 3.272V3.608H69.7038V3.272H69.3037ZM69.3037 3.608C69.3037 4.41446 69.9693 5.08 70.7757 5.08V4.68C70.1902 4.68 69.7038 4.19354 69.7038 3.608H69.3037ZM70.7757 5.08H71.1118V4.68H70.7757V5.08ZM71.1118 5.08C71.9182 5.08 72.5838 4.41446 72.5838 3.608H72.1838C72.1838 4.19354 71.6973 4.68 71.1118 4.68V5.08ZM72.5838 3.608V3.272H72.1838V3.608H72.5838ZM72.5838 3.272C72.5838 2.46554 71.9182 1.8 71.1118 1.8V2.2C71.6973 2.2 72.1838 2.68646 72.1838 3.272H72.5838ZM71.1118 1.8H70.7757V2.2H71.1118V1.8ZM69.3037 8.264V16.448H69.7038V8.264H69.3037ZM69.3037 16.448C69.3037 16.876 69.663 17.2 70.0558 17.2V16.8C69.8725 16.8 69.7038 16.644 69.7038 16.448H69.3037ZM70.0558 17.2H71.8317V16.8H70.0558V17.2ZM71.8317 17.2C72.2542 17.2 72.5838 16.8705 72.5838 16.448H72.1838C72.1838 16.6495 72.0333 16.8 71.8317 16.8V17.2ZM72.5838 16.448V8.264H72.1838V16.448H72.5838ZM72.5838 8.264C72.5838 7.84154 72.2542 7.512 71.8317 7.512V7.912C72.0333 7.912 72.1838 8.06246 72.1838 8.264H72.5838ZM71.8317 7.512H70.0558V7.912H71.8317V7.512ZM70.0558 7.512C69.663 7.512 69.3037 7.83596 69.3037 8.264H69.7038C69.7038 8.06804 69.8725 7.912 70.0558 7.912V7.512ZM83.4144 7.64V7.44H83.2144V7.64H83.4144ZM83.4144 4.928H83.2144V5.128H83.4144V4.928ZM80.5344 4.928V5.128H80.7344V4.928H80.5344ZM80.5344 7.64H80.7344V7.44H80.5344V7.64ZM80.3344 13.664C80.3344 15.6243 81.9378 17.2 83.8944 17.2V16.8C82.155 16.8 80.7344 15.3997 80.7344 13.664H80.3344ZM83.8944 17.2H84.6624V16.8H83.8944V17.2ZM84.6624 17.2C85.0848 17.2 85.4144 16.8705 85.4144 16.448H85.0144C85.0144 16.6495 84.8639 16.8 84.6624 16.8V17.2ZM85.4144 16.448V14.84H85.0144V16.448H85.4144ZM85.4144 14.84C85.4144 14.4175 85.0848 14.088 84.6624 14.088V14.488C84.8639 14.488 85.0144 14.6385 85.0144 14.84H85.4144ZM84.6624 14.088H84.2064V14.488H84.6624V14.088ZM84.2064 14.088C83.8848 14.088 83.6144 13.8175 83.6144 13.496H83.2144C83.2144 14.0385 83.6639 14.488 84.2064 14.488V14.088ZM83.6144 13.496V7.64H83.2144V13.496H83.6144ZM83.4144 7.84H84.6384V7.44H83.4144V7.84ZM84.6384 7.84C85.0608 7.84 85.3904 7.51046 85.3904 7.088H84.9904C84.9904 7.28954 84.8399 7.44 84.6384 7.44V7.84ZM85.3904 7.088V5.48H84.9904V7.088H85.3904ZM85.3904 5.48C85.3904 5.05754 85.0608 4.728 84.6384 4.728V5.128C84.8399 5.128 84.9904 5.27846 84.9904 5.48H85.3904ZM84.6384 4.728H83.4144V5.128H84.6384V4.728ZM83.6144 4.928V3.656H83.2144V4.928H83.6144ZM83.6144 3.656C83.6144 3.26321 83.2904 2.904 82.8624 2.904V3.304C83.0583 3.304 83.2144 3.47279 83.2144 3.656H83.6144ZM82.8624 2.904H81.0864V3.304H82.8624V2.904ZM81.0864 2.904C80.6879 2.904 80.3344 3.25754 80.3344 3.656H80.7344C80.7344 3.47846 80.9088 3.304 81.0864 3.304V2.904ZM80.3344 3.656V4.928H80.7344V3.656H80.3344ZM80.5344 4.728H78.7824V5.128H80.5344V4.728ZM78.7824 4.728C78.3599 4.728 78.0304 5.05754 78.0304 5.48H78.4304C78.4304 5.27846 78.5808 5.128 78.7824 5.128V4.728ZM78.0304 5.48V7.088H78.4304V5.48H78.0304ZM78.0304 7.088C78.0304 7.51046 78.3599 7.84 78.7824 7.84V7.44C78.5808 7.44 78.4304 7.28954 78.4304 7.088H78.0304ZM78.7824 7.84H80.5344V7.44H78.7824V7.84ZM80.3344 7.64V13.664H80.7344V7.64H80.3344ZM92.021 17L92.0157 17.2H92.021V17ZM88.557 13.664C88.557 15.5736 90.1085 17.1491 92.0157 17.1999L92.0263 16.8001C90.3335 16.7549 88.957 15.3544 88.957 13.664H88.557ZM92.021 17.2H92.885V16.8H92.021V17.2ZM92.885 17.2C93.3075 17.2 93.637 16.8705 93.637 16.448H93.237C93.237 16.6495 93.0865 16.8 92.885 16.8V17.2ZM93.637 16.448V14.84H93.237V16.448H93.637ZM93.637 14.84C93.637 14.4175 93.3075 14.088 92.885 14.088V14.488C93.0865 14.488 93.237 14.6385 93.237 14.84H93.637ZM92.885 14.088H92.429V14.488H92.885V14.088ZM92.429 14.088C92.1075 14.088 91.837 13.8175 91.837 13.496H91.437C91.437 14.0385 91.8865 14.488 92.429 14.488V14.088ZM91.837 13.496V8.336H91.437V13.496H91.837ZM91.837 8.336C91.837 8.01446 92.1075 7.744 92.429 7.744V7.344C91.8865 7.344 91.437 7.79354 91.437 8.336H91.837ZM92.429 7.744H92.621V7.344H92.429V7.744ZM92.621 7.744C92.9425 7.744 93.213 8.01446 93.213 8.336H93.613C93.613 7.79354 93.1635 7.344 92.621 7.344V7.744ZM93.213 8.336V10.352H93.613V8.336H93.213ZM93.213 10.352C93.213 10.7745 93.5425 11.104 93.965 11.104V10.704C93.7635 10.704 93.613 10.5535 93.613 10.352H93.213ZM93.965 11.104H95.741V10.704H93.965V11.104ZM95.741 11.104C96.1338 11.104 96.493 10.78 96.493 10.352H96.093C96.093 10.548 95.9242 10.704 95.741 10.704V11.104ZM96.493 10.352V8.168H96.093V10.352H96.493ZM96.493 8.168C96.493 6.23261 94.8905 4.632 92.933 4.632V5.032C94.6715 5.032 96.093 6.45539 96.093 8.168H96.493ZM92.933 4.632H92.117V5.032H92.933V4.632ZM92.117 4.632C90.1595 4.632 88.557 6.23261 88.557 8.168H88.957C88.957 6.45539 90.3785 5.032 92.117 5.032V4.632ZM88.557 8.168V13.664H88.957V8.168H88.557ZM102.404 4.856H102.204V5.056H102.404V4.856ZM99.3476 0.751999V16.448H99.7476V0.751999H99.3476ZM99.3476 16.448C99.3476 16.8646 99.6714 17.2 100.076 17.2V16.8C99.9038 16.8 99.7476 16.6554 99.7476 16.448H99.3476ZM100.076 17.2H101.852V16.8H100.076V17.2ZM101.852 17.2C102.274 17.2 102.604 16.8705 102.604 16.448H102.204C102.204 16.6495 102.053 16.8 101.852 16.8V17.2ZM102.604 16.448V8.36H102.204V16.448H102.604ZM102.604 8.36C102.604 8.03846 102.874 7.768 103.196 7.768V7.368C102.653 7.368 102.204 7.81754 102.204 8.36H102.604ZM103.196 7.768H103.388V7.368H103.196V7.768ZM103.388 7.768C103.709 7.768 103.98 8.03846 103.98 8.36H104.38C104.38 7.81754 103.93 7.368 103.388 7.368V7.768ZM103.98 8.36V16.448H104.38V8.36H103.98ZM103.98 16.448C103.98 16.8705 104.309 17.2 104.732 17.2V16.8C104.53 16.8 104.38 16.6495 104.38 16.448H103.98ZM104.732 17.2H106.508V16.8H104.732V17.2ZM106.508 17.2C106.93 17.2 107.26 16.8705 107.26 16.448H106.86C106.86 16.6495 106.709 16.8 106.508 16.8V17.2ZM107.26 16.448V8.192H106.86V16.448H107.26ZM107.26 8.192C107.26 6.23261 105.657 4.656 103.724 4.656V5.056C105.438 5.056 106.86 6.45539 106.86 8.192H107.26ZM103.724 4.656H102.404V5.056H103.724V4.656ZM102.604 4.856V0.751999H102.204V4.856H102.604ZM102.604 0.751999C102.604 0.329541 102.274 -9.53674e-07 101.852 -9.53674e-07V0.399999C102.053 0.399999 102.204 0.550456 102.204 0.751999H102.604ZM101.852 -9.53674e-07H100.076V0.399999H101.852V-9.53674e-07ZM100.076 -9.53674e-07C99.6714 -9.53674e-07 99.3476 0.335387 99.3476 0.751999H99.7476C99.7476 0.54461 99.9038 0.399999 100.076 0.399999V-9.53674e-07ZM113.602 17L113.597 17.2H113.602V17ZM113.218 12.344V12.144H113.018V12.344H113.218ZM113.218 9.632H113.018V9.832H113.218V9.632ZM114.994 9.632V9.832H115.194V9.632H114.994ZM110.138 13.664C110.138 15.5736 111.69 17.1491 113.597 17.1999L113.608 16.8001C111.915 16.7549 110.538 15.3544 110.538 13.664H110.138ZM113.602 17.2H114.466V16.8H113.602V17.2ZM114.466 17.2C114.889 17.2 115.218 16.8705 115.218 16.448H114.818C114.818 16.6495 114.668 16.8 114.466 16.8V17.2ZM115.218 16.448V14.84H114.818V16.448H115.218ZM115.218 14.84C115.218 14.4175 114.889 14.088 114.466 14.088V14.488C114.668 14.488 114.818 14.6385 114.818 14.84H115.218ZM114.466 14.088H114.01V14.488H114.466V14.088ZM114.01 14.088C113.689 14.088 113.418 13.8175 113.418 13.496H113.018C113.018 14.0385 113.468 14.488 114.01 14.488V14.088ZM113.418 13.496V12.344H113.018V13.496H113.418ZM113.218 12.544H117.322V12.144H113.218V12.544ZM117.322 12.544C117.715 12.544 118.074 12.22 118.074 11.792H117.674C117.674 11.988 117.505 12.144 117.322 12.144V12.544ZM118.074 11.792V8.168H117.674V11.792H118.074ZM118.074 8.168C118.074 6.23261 116.472 4.632 114.514 4.632V5.032C116.253 5.032 117.674 6.45539 117.674 8.168H118.074ZM114.514 4.632H113.698V5.032H114.514V4.632ZM113.698 4.632C111.741 4.632 110.138 6.23261 110.138 8.168H110.538C110.538 6.45539 111.96 5.032 113.698 5.032V4.632ZM110.138 8.168V13.664H110.538V8.168H110.138ZM113.418 9.632V8.336H113.018V9.632H113.418ZM113.418 8.336C113.418 8.01446 113.689 7.744 114.01 7.744V7.344C113.468 7.344 113.018 7.79354 113.018 8.336H113.418ZM114.01 7.744H114.202V7.344H114.01V7.744ZM114.202 7.744C114.524 7.744 114.794 8.01446 114.794 8.336H115.194C115.194 7.79354 114.745 7.344 114.202 7.344V7.744ZM114.794 8.336V9.632H115.194V8.336H114.794ZM114.994 9.432H113.218V9.832H114.994V9.432ZM126.337 12.568H128.113V12.168H126.337V12.568ZM128.113 12.568C128.511 12.568 128.865 12.2145 128.865 11.816H128.465C128.465 11.9935 128.29 12.168 128.113 12.168V12.568ZM128.865 11.816V8.192H128.465V11.816H128.865ZM128.865 8.192C128.865 6.23168 127.261 4.656 125.305 4.656V5.056C127.044 5.056 128.465 6.45632 128.465 8.192H128.865ZM125.305 4.656H121.465V5.056H125.305V4.656ZM121.465 4.656C121.328 4.656 121.194 4.69912 121.091 4.79134C120.986 4.88553 120.929 5.01877 120.929 5.168H121.329C121.329 5.12523 121.343 5.10247 121.359 5.08866C121.376 5.07288 121.41 5.056 121.465 5.056V4.656ZM120.929 5.168V16.448H121.329V5.168H120.929ZM120.929 16.448C120.929 16.876 121.288 17.2 121.681 17.2V16.8C121.498 16.8 121.329 16.644 121.329 16.448H120.929ZM121.681 17.2H123.457V16.8H121.681V17.2ZM123.457 17.2C123.879 17.2 124.209 16.8705 124.209 16.448H123.809C123.809 16.6495 123.658 16.8 123.457 16.8V17.2ZM124.209 16.448V8.312H123.809V16.448H124.209ZM124.209 8.312C124.209 7.99046 124.479 7.72 124.801 7.72V7.32C124.258 7.32 123.809 7.76954 123.809 8.312H124.209ZM124.801 7.72H124.993V7.32H124.801V7.72ZM124.993 7.72C125.314 7.72 125.585 7.99046 125.585 8.312H125.985C125.985 7.76954 125.535 7.32 124.993 7.32V7.72ZM125.585 8.312V11.816H125.985V8.312H125.585ZM125.585 11.816C125.585 12.2088 125.909 12.568 126.337 12.568V12.168C126.141 12.168 125.985 11.9992 125.985 11.816H125.585Z" fill=""></path>
  </symbol>
  <symbol fill="" xmlns="http://www.w3.org/2000/svg" viewBox="0 0 23 22" id="icon-instagram">
    <path fill-rule="evenodd" clip-rule="evenodd" d="M7.83667 0H16.0867C19.883 0 22.9617 3.07862 22.9617 6.875V15.125C22.9617 18.9214 19.883 22 16.0867 22H7.83667C4.04029 22 0.96167 18.9214 0.96167 15.125V6.875C0.96167 3.07862 4.04029 0 7.83667 0ZM16.0867 19.9375C18.7404 19.9375 20.8992 17.7787 20.8992 15.125V6.875C20.8992 4.22125 18.7404 2.0625 16.0867 2.0625H7.83667C5.18292 2.0625 3.02417 4.22125 3.02417 6.875V15.125C3.02417 17.7787 5.18292 19.9375 7.83667 19.9375H16.0867Z" fill=""></path>
    <path fill-rule="evenodd" clip-rule="evenodd" d="M6.46167 11C6.46167 7.96262 8.92429 5.5 11.9617 5.5C14.999 5.5 17.4617 7.96262 17.4617 11C17.4617 14.0374 14.999 16.5 11.9617 16.5C8.92429 16.5 6.46167 14.0374 6.46167 11ZM8.52417 11C8.52417 12.8948 10.0669 14.4375 11.9617 14.4375C13.8564 14.4375 15.3992 12.8948 15.3992 11C15.3992 9.10387 13.8564 7.5625 11.9617 7.5625C10.0669 7.5625 8.52417 9.10387 8.52417 11Z" fill=""></path>
    <circle cx="17.8741" cy="5.08737" r="0.732875" fill=""></circle>
  </symbol>
  <symbol fill="" xmlns="http://www.w3.org/2000/svg" viewBox="0 0 24 24" id="icon-timer">
    <path d="M9.75 1.5H14.25C14.4489 1.5 14.6397 1.42098 14.7803 1.28033C14.921 1.13968 15 0.948912 15 0.75C15 0.551088 14.921 0.360322 14.7803 0.21967C14.6397 0.0790176 14.4489 0 14.25 0L9.75 0C9.55109 0 9.36032 0.0790176 9.21967 0.21967C9.07902 0.360322 9 0.551088 9 0.75C9 0.948912 9.07902 1.13968 9.21967 1.28033C9.36032 1.42098 9.55109 1.5 9.75 1.5Z" fill=""></path>
    <path d="M12 3C10.22 3 8.47991 3.52784 6.99987 4.51677C5.51983 5.50571 4.36628 6.91131 3.68509 8.55585C3.0039 10.2004 2.82567 12.01 3.17294 13.7558C3.5202 15.5016 4.37737 17.1053 5.63604 18.364C6.89472 19.6226 8.49836 20.4798 10.2442 20.8271C11.99 21.1743 13.7996 20.9961 15.4442 20.3149C17.0887 19.6337 18.4943 18.4802 19.4832 17.0001C20.4722 15.5201 21 13.78 21 12C20.9973 9.61388 20.0482 7.32626 18.361 5.63902C16.6737 3.95178 14.3861 3.0027 12 3ZM16.2426 8.81799L12.5304 12.5303C12.4607 12.6 12.378 12.6552 12.2871 12.6929C12.1961 12.7306 12.0985 12.75 12 12.75C11.9015 12.75 11.804 12.7306 11.713 12.6929C11.622 12.6553 11.5393 12.6 11.4697 12.5304C11.4 12.4607 11.3448 12.378 11.3071 12.2871C11.2694 12.1961 11.25 12.0985 11.25 12C11.25 11.9015 11.2694 11.804 11.3071 11.713C11.3448 11.622 11.4 11.5393 11.4696 11.4697L15.182 7.75736C15.2516 7.68771 15.3343 7.63246 15.4253 7.59477C15.5163 7.55708 15.6138 7.53767 15.7123 7.53767C15.8108 7.53767 15.9083 7.55707 15.9993 7.59476C16.0903 7.63244 16.173 7.68769 16.2426 7.75733C16.3123 7.82697 16.3675 7.90965 16.4052 8.00065C16.4429 8.09164 16.4623 8.18916 16.4623 8.28766C16.4623 8.38615 16.4429 8.48368 16.4052 8.57467C16.3675 8.66567 16.3123 8.74835 16.2427 8.81799H16.2426Z" fill=""></path>
  </symbol>
  <symbol fill="" xmlns="http://www.w3.org/2000/svg" viewBox="0 0 23 18" id="icon-twitter">
    <path d="M22.9617 2.11613C22.1435 2.475 21.2718 2.71288 20.3629 2.82838C21.2979 2.27013 22.0115 1.39287 22.347 0.3355C21.4753 0.85525 20.5128 1.22238 19.487 1.42725C18.6593 0.545875 17.4795 0 16.1925 0C13.6955 0 11.6853 2.02675 11.6853 4.51137C11.6853 4.86888 11.7155 5.21263 11.7898 5.53988C8.04017 5.357 4.72229 3.55988 2.49342 0.82225C2.10429 1.49738 1.87604 2.27012 1.87604 3.102C1.87604 4.664 2.68042 6.04862 3.87942 6.85025C3.15479 6.8365 2.44392 6.62613 1.84167 6.29475C1.84167 6.3085 1.84167 6.32638 1.84167 6.34425C1.84167 8.536 3.40505 10.3565 5.45517 10.7759C5.08805 10.8763 4.68792 10.9244 4.27267 10.9244C3.98392 10.9244 3.69242 10.9079 3.41879 10.8474C4.00317 12.6335 5.66142 13.9466 7.63317 13.9893C6.09867 15.1896 4.1503 15.9129 2.04104 15.9129C1.67117 15.9129 1.31642 15.8964 0.96167 15.851C2.95954 17.1394 5.3273 17.875 7.88067 17.875C16.1802 17.875 20.7177 11 20.7177 5.04075C20.7177 4.84137 20.7108 4.64887 20.7012 4.45775C21.5963 3.8225 22.3484 3.02913 22.9617 2.11613Z" fill=""></path>
  </symbol>
  <symbol fill="" xmlns="http://www.w3.org/2000/svg" viewBox="0 0 24 24" id="icon-category">
    <path d="M4 11H10C10.2652 11 10.5196 10.8946 10.7071 10.7071C10.8946 10.5196 11 10.2652 11 10V4C11 3.73478 10.8946 3.48043 10.7071 3.29289C10.5196 3.10536 10.2652 3 10 3H4C3.73478 3 3.48043 3.10536 3.29289 3.29289C3.10536 3.48043 3 3.73478 3 4V10C3 10.2652 3.10536 10.5196 3.29289 10.7071C3.48043 10.8946 3.73478 11 4 11ZM14 11H20C20.2652 11 20.5196 10.8946 20.7071 10.7071C20.8946 10.5196 21 10.2652 21 10V4C21 3.73478 20.8946 3.48043 20.7071 3.29289C20.5196 3.10536 20.2652 3 20 3H14C13.7348 3 13.4804 3.10536 13.2929 3.29289C13.1054 3.48043 13 3.73478 13 4V10C13 10.2652 13.1054 10.5196 13.2929 10.7071C13.4804 10.8946 13.7348 11 14 11ZM4 21H10C10.2652 21 10.5196 20.8946 10.7071 20.7071C10.8946 20.5196 11 20.2652 11 20V14C11 13.7348 10.8946 13.4804 10.7071 13.2929C10.5196 13.1054 10.2652 13 10 13H4C3.73478 13 3.48043 13.1054 3.29289 13.2929C3.10536 13.4804 3 13.7348 3 14V20C3 20.2652 3.10536 20.5196 3.29289 20.7071C3.48043 20.8946 3.73478 21 4 21ZM17 21C19.206 21 21 19.206 21 17C21 14.794 19.206 13 17 13C14.794 13 13 14.794 13 17C13 19.206 14.794 21 17 21Z" fill=""></path>
  </symbol>
  <symbol fill="" xmlns="http://www.w3.org/2000/svg" viewBox="0 0 10 20" id="icon-facebook">
    <path d="M8.11163 3.29509H9.92331V0.139742C9.61075 0.0967442 8.53581 0 7.28393 0C4.67183 0 2.88248 1.643 2.88248 4.66274V7.44186H0V10.9693H2.88248V19.845H6.41654V10.9701H9.18243L9.6215 7.44269H6.41571V5.01251C6.41654 3.99297 6.69106 3.29509 8.11163 3.29509Z" fill=""></path>
  </symbol>
  <symbol fill="" xmlns="http://www.w3.org/2000/svg" viewBox="0 0 10 20" id="icon-facebook">
    <path d="M8.11163 3.29509H9.92331V0.139742C9.61075 0.0967442 8.53581 0 7.28393 0C4.67183 0 2.88248 1.643 2.88248 4.66274V7.44186H0V10.9693H2.88248V19.845H6.41654V10.9701H9.18243L9.6215 7.44269H6.41571V5.01251C6.41654 3.99297 6.69106 3.29509 8.11163 3.29509Z" fill=""></path>
  </symbol>
  <symbol fill="" xmlns="http://www.w3.org/2000/svg" viewBox="0 0 24 24" id="icon-menu">
    <path d="M21 16H3V14H21V16ZM21 10H3V8H21V10Z" fill=""></path>
  </symbol>
  <symbol fill="" xmlns="http://www.w3.org/2000/svg" viewBox="0 0 24 24" id="icon-tags">
    <path d="M6 3V19.38L10.5945 15.7035C10.9934 15.3844 11.4891 15.2105 12 15.2105C12.5109 15.2105 13.0066 15.3844 13.4055 15.7035L18 19.3785V3H6ZM5.25 1.5H18.75C18.9489 1.5 19.1397 1.57902 19.2803 1.71967C19.421 1.86032 19.5 2.05109 19.5 2.25V20.94C19.4998 21.0811 19.4598 21.2193 19.3846 21.3387C19.3093 21.4581 19.2019 21.5539 19.0747 21.615C18.9475 21.6761 18.8056 21.7001 18.6654 21.6841C18.5252 21.6682 18.3923 21.6131 18.282 21.525L12.468 16.875C12.3351 16.7689 12.1701 16.7111 12 16.7111C11.8299 16.7111 11.6649 16.7689 11.532 16.875L5.718 21.525C5.60772 21.6131 5.47483 21.6682 5.3346 21.6841C5.19438 21.7001 5.0525 21.6761 4.92529 21.615C4.79807 21.5539 4.69068 21.4581 4.61545 21.3387C4.54022 21.2193 4.5002 21.0811 4.5 20.94V2.25C4.5 2.05109 4.57902 1.86032 4.71967 1.71967C4.86032 1.57902 5.05109 1.5 5.25 1.5Z" fill=""></path>
  </symbol>
  <symbol fill="" xmlns="http://www.w3.org/2000/svg" viewBox="0 0 24 24" id="icon-dashboard">
    <path d="M19 3H5C3.9 3 3 3.9 3 5V19C3 20.1 3.9 21 5 21H19C20.1 21 21 20.1 21 19V5C21 3.9 20.1 3 19 3ZM5 19V5H11V19H5ZM19 19H13V12H19V19ZM19 10H13V5H19V10Z" fill=""></path>
  </symbol>
  <symbol fill="" xmlns="http://www.w3.org/2000/svg" viewBox="0 0 24 24" id="icon-media">
    <path d="M21.3335 2.66663H2.66683C2.31321 2.66663 1.97407 2.8071 1.72402 3.05715C1.47397 3.3072 1.3335 3.64634 1.3335 3.99996V20C1.3335 20.3536 1.47397 20.6927 1.72402 20.9428C1.97407 21.1928 2.31321 21.3333 2.66683 21.3333H21.3335C21.6871 21.3333 22.0263 21.1928 22.2763 20.9428C22.5264 20.6927 22.6668 20.3536 22.6668 20V3.99996C22.6668 3.64634 22.5264 3.3072 22.2763 3.05715C22.0263 2.8071 21.6871 2.66663 21.3335 2.66663ZM2.66683 20V3.99996H21.3335V20H2.66683Z" fill=""></path>
    <path d="M5.94678 9.33337C6.34234 9.33337 6.72902 9.21608 7.05792 8.99631C7.38682 8.77655 7.64316 8.46419 7.79454 8.09874C7.94591 7.73329 7.98552 7.33116 7.90835 6.94319C7.83118 6.55523 7.6407 6.19887 7.36099 5.91916C7.08129 5.63946 6.72492 5.44897 6.33696 5.3718C5.949 5.29463 5.54686 5.33424 5.18141 5.48562C4.81596 5.63699 4.5036 5.89334 4.28384 6.22223C4.06408 6.55113 3.94678 6.93781 3.94678 7.33338C3.94678 7.86381 4.15749 8.37252 4.53256 8.74759C4.90764 9.12266 5.41634 9.33337 5.94678 9.33337ZM5.94678 6.26671C6.15802 6.26539 6.3649 6.32682 6.54119 6.44322C6.71748 6.55963 6.85523 6.72575 6.93699 6.92054C7.01875 7.11533 7.04082 7.33 7.00042 7.53735C6.96002 7.7447 6.85896 7.93539 6.71005 8.08523C6.56114 8.23508 6.3711 8.33733 6.164 8.37903C5.95691 8.42073 5.7421 8.4 5.5468 8.31947C5.35151 8.23893 5.18452 8.10222 5.06702 7.92667C4.94951 7.75112 4.88678 7.54463 4.88678 7.33338C4.88853 7.05279 5.00077 6.78418 5.19918 6.58577C5.39759 6.38736 5.66619 6.27512 5.94678 6.27338V6.26671Z" fill=""></path>
    <path d="M15.1868 10.2467L11.5868 13.8467L8.92011 11.1801C8.7952 11.0559 8.62623 10.9862 8.45011 10.9862C8.27399 10.9862 8.10502 11.0559 7.98011 11.1801L3.94678 15.2667V17.1534L8.47344 12.6267L10.6668 14.7867L8.16678 17.2867H10.0001L15.6334 11.6534L20.0001 16.0001V14.1201L16.1268 10.2467C16.0019 10.1226 15.8329 10.0529 15.6568 10.0529C15.4807 10.0529 15.3117 10.1226 15.1868 10.2467Z" fill=""></path>
  </symbol>
  <symbol fill="" xmlns="http://www.w3.org/2000/svg" viewBox="0 0 24 24" id="icon-posts">
    <path d="M18 12C17.45 12 17 12.45 17 13V18.22C17 18.77 16.55 19.22 16 19.22H6C5.45 19.22 5 18.77 5 18.22V8C5 7.45 5.45 7 6 7H11C11.55 7 12 6.55 12 6C12 5.45 11.55 5 11 5H5C3.9 5 3 5.9 3 7V19C3 20.1 3.9 21 5 21H17C18.1 21 19 20.1 19 19V13C19 12.45 18.55 12 18 12ZM21.02 5H19V2.98C19 2.44 18.56 2 18.02 2H17.99C17.44 2 17 2.44 17 2.98V5H14.99C14.45 5 14.01 5.44 14 5.98V6.01C14 6.56 14.44 7 14.99 7H17V9.01C17 9.55 17.44 10 17.99 9.99H18.02C18.56 9.99 19 9.55 19 9.01V7H21.02C21.56 7 22 6.56 22 6.02V5.98C22 5.44 21.56 5 21.02 5Z" fill=""></path>
    <path d="M14 9H8C7.45 9 7 9.45 7 10C7 10.55 7.45 11 8 11H14C14.55 11 15 10.55 15 10C15 9.45 14.55 9 14 9ZM14 12H8C7.45 12 7 12.45 7 13C7 13.55 7.45 14 8 14H14C14.55 14 15 13.55 15 13C15 12.45 14.55 12 14 12ZM14 15H8C7.45 15 7 15.45 7 16C7 16.55 7.45 17 8 17H14C14.55 17 15 16.55 15 16C15 15.45 14.55 15 14 15Z" fill=""></path>
  </symbol>
  <symbol fill="none" xmlns="http://www.w3.org/2000/svg" viewBox="0 0 24 24" id="icon-search">
    <path d="M11.6411 19.2435C16.0594 19.2435 19.6411 15.6618 19.6411 11.2435C19.6411 6.82525 16.0594 3.24353 11.6411 3.24353C7.22284 3.24353 3.64111 6.82525 3.64111 11.2435C3.64111 15.6618 7.22284 19.2435 11.6411 19.2435Z" stroke="" stroke-width="2" stroke-linecap="round" stroke-linejoin="round"></path>
    <path d="M21.641 21.2436L17.291 16.8936" stroke="" stroke-width="2" stroke-linecap="round" stroke-linejoin="round"></path>
  </symbol>
  <symbol fill="" xmlns="http://www.w3.org/2000/svg" viewBox="0 0 24 24" id="icon-bell">
    <path d="M18 8C18 6.4087 17.3679 4.88258 16.2426 3.75736C15.1174 2.63214 13.5913 2 12 2C10.4087 2 8.88258 2.63214 7.75736 3.75736C6.63214 4.88258 6 6.4087 6 8C6 15 3 17 3 17H21C21 17 18 15 18 8Z" stroke="" stroke-width="2" stroke-linecap="round" stroke-linejoin="round"></path>
    <path d="M13.73 21C13.5542 21.3031 13.3019 21.5547 12.9982 21.7295C12.6946 21.9044 12.3504 21.9965 12 21.9965C11.6496 21.9965 11.3054 21.9044 11.0018 21.7295C10.6982 21.5547 10.4458 21.3031 10.27 21" stroke="" stroke-width="2" stroke-linecap="round" stroke-linejoin="round"></path>
  </symbol> 
  <symbol fill="" xmlns="http://www.w3.org/2000/svg" viewBox="0 0 24 24" id="icon-chevron-down">
    <path d="M4 9L12 17L20 9" stroke="" stroke-width="2" stroke-linecap="round" stroke-linejoin="round"></path>
  </symbol>
  <symbol fill="" xmlns="http://www.w3.org/2000/svg" viewBox="0 0 24 24" id="icon-clock">
    <path d="M12 22C17.5228 22 22 17.5228 22 12C22 6.47715 17.5228 2 12 2C6.47715 2 2 6.47715 2 12C2 17.5228 6.47715 22 12 22Z" stroke="" stroke-width="2" stroke-linecap="round" stroke-linejoin="round"></path>
    <path d="M15 16L12.586 13.586C12.2109 13.211 12.0001 12.7024 12 12.172V6" stroke="" stroke-width="2" stroke-linecap="round" stroke-linejoin="round"></path>
  </symbol>
  <symbol fill="" xmlns="http://www.w3.org/2000/svg" viewBox="0 0 24 24" id="icon-calendar">
    <path d="M18 4H6C3.79086 4 2 5.79086 2 8V18C2 20.2091 3.79086 22 6 22H18C20.2091 22 22 20.2091 22 18V8C22 5.79086 20.2091 4 18 4Z" stroke="" stroke-width="2" stroke-linecap="round" stroke-linejoin="round"></path>
    <path d="M8 2V6M16 2V6M2 10H22" stroke="" stroke-width="2" stroke-linecap="round" stroke-linejoin="round"></path>
  </symbol>
</svg>